<svg width="278" height="481" viewBox="0 0 278 481" fill="none" xmlns="http://www.w3.org/2000/svg">
<path fill-rule="evenodd" clip-rule="evenodd" d="M223.927 446.906V445.82L209.037 439.745C208.06 440.931 207.541 442.298 207.538 443.694V453.563L207.575 453.578L223.927 446.906Z" fill="#3377B5"/>
<path fill-rule="evenodd" clip-rule="evenodd" d="M207.575 453.578L223.927 460.25V446.906L207.575 453.578Z" fill="#4F6CB0"/>
<path fill-rule="evenodd" clip-rule="evenodd" d="M276.53 439.872L261.952 445.82V446.906L277.932 453.426V443.694C277.932 442.333 277.432 441.024 276.53 439.872" fill="#504CA1"/>
<path fill-rule="evenodd" clip-rule="evenodd" d="M223.927 460.78V460.25L207.575 453.578L207.538 453.593V463.305C207.538 464.763 208.111 466.162 209.138 467.37L223.956 461.324L223.927 460.78Z" fill="#3B9CC7"/>
<path fill-rule="evenodd" clip-rule="evenodd" d="M260.448 445.107V432.004L244.392 438.555L260.448 445.107Z" fill="#5465AD"/>
<path fill-rule="evenodd" clip-rule="evenodd" d="M261.952 445.72V445.82L276.529 439.872C275.563 438.639 274.136 437.59 272.349 436.86L260.448 432.004V445.107" fill="#513D9A"/>
<path fill-rule="evenodd" clip-rule="evenodd" d="M242.931 466.729L258.887 460.218V460.089L242.931 453.578V466.729" fill="#214688"/>
<path fill-rule="evenodd" clip-rule="evenodd" d="M225.226 461.882V475.078L225.418 475.157L241.589 468.559L225.226 461.882" fill="#4395C4"/>
<path fill-rule="evenodd" clip-rule="evenodd" d="M223.958 461.364L223.956 461.324L209.139 467.37C210.098 468.497 211.453 469.459 213.121 470.139L225.228 475.078V461.882L223.958 461.364Z" fill="#54A4CB"/>
<path fill-rule="evenodd" clip-rule="evenodd" d="M243.042 438.005L244.392 438.555L260.447 432.003L248.317 427.054C246.662 426.383 244.818 426.022 242.94 426.002V438.046L243.042 438.005Z" fill="#7F6FB3"/>
<path fill-rule="evenodd" clip-rule="evenodd" d="M241.589 438.597L242.939 438.047V426.002C241.191 425.977 239.458 426.246 237.865 426.789L225.257 431.933L241.589 438.597Z" fill="#5054A4"/>
<path fill-rule="evenodd" clip-rule="evenodd" d="M225.257 431.933L225.226 431.946V445.274L241.589 438.597L225.257 431.933Z" fill="#50479E"/>
<path fill-rule="evenodd" clip-rule="evenodd" d="M223.927 445.808L224.62 445.52L225.224 445.273V431.946L212.438 437.164C211.06 437.819 209.897 438.702 209.037 439.745L223.927 445.82V445.808Z" fill="#5057A6"/>
<path fill-rule="evenodd" clip-rule="evenodd" d="M243.042 469.151L242.94 469.11V480.998C244.819 480.977 246.663 480.616 248.318 479.945L260.257 475.074L244.392 468.601L243.042 469.151Z" fill="#2C7AB6"/>
<path fill-rule="evenodd" clip-rule="evenodd" d="M241.59 468.559L225.419 475.158L237.152 479.946C238.929 480.666 240.923 481.028 242.94 480.998V469.11" fill="#4FA2CA"/>
<path fill-rule="evenodd" clip-rule="evenodd" d="M244.392 468.6L260.256 475.073L260.448 474.995V462.049L244.392 468.6" fill="#4D8DC0"/>
<path fill-rule="evenodd" clip-rule="evenodd" d="M261.952 461.435L260.448 462.049V474.995L272.348 470.139C274.078 469.433 275.474 468.428 276.439 467.247L261.952 461.334" fill="#4488BE"/>
<path fill-rule="evenodd" clip-rule="evenodd" d="M261.952 461.335L276.439 467.247C277.412 466.063 277.929 464.698 277.932 463.305V453.73L261.952 460.25" fill="#6687BE"/>
<path fill-rule="evenodd" clip-rule="evenodd" d="M261.952 460.25L277.932 453.73V453.426L261.952 446.906V460.25Z" fill="#415CA8"/>
<path fill-rule="evenodd" clip-rule="evenodd" d="M258.887 460.089V447.067L242.93 453.578L258.887 460.089Z" fill="#5D62AC"/>
<path opacity="0.2" d="M224.742 318C245.376 318 262.104 305.688 262.104 290.5C262.104 275.312 245.376 263 224.742 263C204.108 263 187.38 275.312 187.38 290.5C187.38 305.688 204.108 318 224.742 318Z" fill="#0048A1"/>
<path fill-rule="evenodd" clip-rule="evenodd" d="M223.173 277.684C223.126 277.693 223.079 277.703 223.032 277.712C222.971 277.725 222.909 277.738 222.848 277.751C222.787 277.762 222.726 277.772 222.665 277.783C222.615 277.793 222.566 277.803 222.517 277.813C222.427 277.83 222.339 277.848 222.25 277.868C222.216 277.871 222.183 277.875 222.149 277.879C222.075 277.897 222 277.913 221.925 277.931C221.803 277.951 221.682 277.974 221.561 277.998C221.512 278.007 221.463 278.016 221.414 278.025C221.369 278.034 221.323 278.043 221.278 278.051C221.19 278.069 221.101 278.086 221.012 278.103C220.899 278.124 220.787 278.145 220.675 278.17C220.635 278.173 220.555 278.179 220.515 278.182L220.519 278.216L220.455 278.211C220.478 278.283 220.504 278.354 220.53 278.425C220.581 278.551 220.627 278.679 220.668 278.808C220.747 279.022 220.825 279.237 220.9 279.452C220.917 279.496 220.932 279.54 220.947 279.585C220.964 279.63 220.979 279.675 220.995 279.72C221.009 279.757 221.022 279.794 221.034 279.831L221.043 279.857C221.091 279.983 221.135 280.109 221.177 280.236C221.185 280.259 221.194 280.282 221.202 280.305C221.209 280.326 221.216 280.347 221.224 280.369C221.239 280.412 221.255 280.455 221.27 280.499C221.282 280.532 221.294 280.565 221.306 280.598C221.31 280.612 221.315 280.625 221.32 280.638C221.367 280.765 221.412 280.892 221.455 281.02C221.487 281.108 221.519 281.196 221.55 281.285C221.569 281.341 221.592 281.397 221.616 281.453C221.667 281.576 221.718 281.699 221.728 281.827C221.595 281.842 221.465 281.864 221.334 281.887L221.323 281.888C221.224 281.911 221.124 281.93 221.024 281.95C220.941 281.967 220.857 281.983 220.774 282.001C220.696 282.016 220.619 282.032 220.541 282.047C220.463 282.063 220.386 282.079 220.308 282.093C220.265 282.103 220.222 282.111 220.179 282.119C220.163 282.122 220.147 282.125 220.131 282.128C220.055 282.146 219.979 282.163 219.903 282.179C219.808 282.2 219.713 282.22 219.619 282.243C219.512 282.264 219.404 282.284 219.294 282.291C219.259 282.104 219.193 281.923 219.127 281.741C219.092 281.645 219.057 281.55 219.027 281.453C219.013 281.419 219 281.384 218.987 281.35C218.979 281.328 218.971 281.305 218.962 281.283C218.934 281.191 218.901 281.1 218.868 281.008C218.843 280.94 218.818 280.873 218.796 280.804C218.781 280.767 218.768 280.73 218.755 280.693L218.748 280.671C218.731 280.627 218.715 280.582 218.7 280.537C218.683 280.492 218.667 280.447 218.652 280.402C218.635 280.356 218.621 280.31 218.606 280.264C218.54 280.094 218.48 279.921 218.423 279.749C218.41 279.719 218.398 279.689 218.386 279.658C218.377 279.635 218.368 279.611 218.358 279.587C218.348 279.552 218.336 279.517 218.324 279.482C218.312 279.447 218.3 279.412 218.289 279.377C218.277 279.346 218.266 279.316 218.254 279.285C218.245 279.261 218.236 279.236 218.227 279.212C218.217 279.184 218.207 279.155 218.196 279.127C218.157 279.019 218.118 278.91 218.102 278.798C218.082 278.771 218.044 278.719 218.021 278.689L218.016 278.682C217.938 278.689 217.863 278.704 217.788 278.719C217.766 278.723 217.744 278.727 217.723 278.731C217.615 278.756 217.506 278.778 217.396 278.798C217.359 278.805 217.321 278.813 217.284 278.82C217.245 278.827 217.205 278.835 217.166 278.843C217.106 278.854 217.047 278.865 216.988 278.878C216.787 278.915 216.586 278.954 216.385 278.992C216.185 279.03 215.984 279.069 215.783 279.106C215.669 279.131 215.553 279.151 215.438 279.172C215.278 279.2 215.118 279.229 214.962 279.268C214.976 279.317 214.991 279.365 215.008 279.414C215.021 279.448 215.034 279.482 215.047 279.517C215.062 279.553 215.076 279.59 215.09 279.626C215.104 279.669 215.118 279.712 215.132 279.755C215.142 279.78 215.152 279.804 215.162 279.829C215.174 279.861 215.187 279.893 215.201 279.925C215.206 279.949 215.212 279.973 215.217 279.998C215.253 280.087 215.285 280.177 215.316 280.267C215.333 280.313 215.349 280.358 215.364 280.405C215.381 280.449 215.396 280.494 215.411 280.538C215.428 280.583 215.443 280.628 215.459 280.673C215.469 280.7 215.479 280.727 215.488 280.754C215.495 280.771 215.501 280.789 215.507 280.806C215.52 280.842 215.533 280.878 215.545 280.914C215.626 281.129 215.703 281.344 215.775 281.56C215.809 281.656 215.844 281.751 215.878 281.847C215.937 282.011 215.995 282.174 216.053 282.338C216.07 282.384 216.087 282.431 216.103 282.478C216.118 282.52 216.132 282.562 216.146 282.605C216.158 282.634 216.17 282.663 216.181 282.693C216.192 282.72 216.203 282.748 216.214 282.776C216.228 282.816 216.243 282.855 216.258 282.895C216.265 282.916 216.273 282.937 216.281 282.958C216.194 282.98 216.105 283.001 216.018 283.021C215.897 283.042 215.778 283.066 215.658 283.09C215.56 283.109 215.463 283.128 215.365 283.146C215.258 283.169 215.151 283.191 215.043 283.211C215.005 283.22 214.968 283.228 214.931 283.236C214.894 283.245 214.857 283.253 214.82 283.261C214.764 283.271 214.709 283.281 214.653 283.292C214.615 283.299 214.576 283.306 214.537 283.313C214.261 283.371 213.982 283.422 213.703 283.473C213.626 283.488 213.549 283.502 213.472 283.516C213.412 283.528 213.35 283.54 213.289 283.552C213.225 283.564 213.162 283.575 213.099 283.587C212.962 283.613 212.825 283.639 212.689 283.669C212.645 283.674 212.601 283.68 212.557 283.686C212.495 283.7 212.432 283.712 212.369 283.724C212.26 283.745 212.15 283.767 212.039 283.787C211.991 283.797 211.942 283.806 211.894 283.815L211.86 283.821C211.798 283.834 211.736 283.845 211.674 283.856C211.613 283.868 211.551 283.878 211.49 283.889C211.429 283.902 211.368 283.913 211.306 283.925C211.245 283.937 211.183 283.948 211.122 283.959C211.061 283.971 211 283.983 210.938 283.995C210.881 284.006 210.823 284.016 210.766 284.026L210.754 284.028C210.724 284.034 210.695 284.04 210.666 284.046C210.634 284.053 210.601 284.06 210.569 284.067C210.507 284.076 210.444 284.085 210.382 284.094C210.357 284.099 210.333 284.105 210.308 284.111C210.256 284.122 210.204 284.134 210.152 284.147L210.113 284.156C210.144 284.257 210.182 284.356 210.22 284.456C210.227 284.474 210.234 284.492 210.241 284.51C210.256 284.555 210.27 284.601 210.283 284.646L210.284 284.647C210.293 284.668 210.302 284.69 210.311 284.712C210.326 284.745 210.34 284.779 210.355 284.812C210.358 284.826 210.36 284.839 210.362 284.852C210.364 284.864 210.366 284.876 210.369 284.887C210.388 284.932 210.406 284.976 210.425 285.021C210.441 285.066 210.455 285.112 210.47 285.158L210.47 285.158C210.486 285.2 210.502 285.242 210.517 285.284C210.533 285.33 210.548 285.377 210.563 285.423C210.58 285.469 210.598 285.514 210.615 285.559C210.627 285.594 210.639 285.63 210.65 285.665C210.666 285.707 210.681 285.75 210.696 285.792L210.7 285.801C210.716 285.846 210.731 285.892 210.747 285.938L210.747 285.938C210.779 286.019 210.809 286.1 210.836 286.182C210.845 286.209 210.854 286.236 210.864 286.263C210.898 286.366 210.933 286.468 210.972 286.57C211.056 286.554 211.14 286.537 211.224 286.52C211.282 286.508 211.34 286.496 211.398 286.485C211.445 286.474 211.493 286.463 211.541 286.453C211.57 286.447 211.598 286.44 211.627 286.434C211.671 286.426 211.715 286.418 211.759 286.409C211.809 286.4 211.858 286.39 211.908 286.381C211.967 286.368 212.026 286.357 212.085 286.345L212.096 286.343C212.257 286.308 212.419 286.276 212.581 286.244L212.643 286.232C212.75 286.213 212.856 286.192 212.963 286.172L213.013 286.162C213.107 286.151 213.2 286.137 213.293 286.123C213.326 286.118 213.358 286.113 213.39 286.109C213.541 286.083 213.695 286.081 213.849 286.079C214.02 286.076 214.19 286.094 214.355 286.128C214.43 286.151 214.507 286.173 214.583 286.195C214.832 286.3 215.039 286.451 215.196 286.627C215.232 286.681 215.269 286.735 215.307 286.788L215.328 286.819L215.333 286.841C215.341 286.878 215.349 286.915 215.358 286.952C215.425 287.117 215.482 287.284 215.539 287.451C215.556 287.5 215.573 287.549 215.59 287.599C215.607 287.643 215.623 287.687 215.64 287.732C215.653 287.767 215.665 287.802 215.676 287.838L215.687 287.869C215.704 287.914 215.719 287.958 215.735 288.003C215.781 288.129 215.827 288.255 215.869 288.382C215.885 288.426 215.901 288.471 215.916 288.515C215.933 288.561 215.948 288.607 215.964 288.653C215.98 288.697 215.997 288.741 216.013 288.786C216.043 288.867 216.071 288.948 216.099 289.03C216.132 289.118 216.165 289.207 216.195 289.297C216.242 289.426 216.288 289.556 216.335 289.686C216.427 289.94 216.519 290.195 216.606 290.451C216.623 290.496 216.639 290.541 216.656 290.586C216.672 290.632 216.687 290.678 216.701 290.725L216.71 290.748C216.724 290.784 216.738 290.819 216.751 290.855C216.762 290.887 216.773 290.92 216.783 290.953C216.787 290.966 216.791 290.978 216.795 290.991C216.807 291.02 216.818 291.049 216.829 291.078C216.839 291.106 216.85 291.133 216.861 291.161C216.872 291.198 216.885 291.235 216.897 291.272C216.909 291.304 216.92 291.337 216.93 291.37C216.947 291.414 216.964 291.459 216.98 291.505C216.996 291.551 217.011 291.598 217.026 291.645C217.076 291.766 217.122 291.889 217.163 292.012C217.172 292.034 217.18 292.057 217.189 292.079C217.201 292.112 217.213 292.145 217.226 292.178C217.252 292.258 217.28 292.337 217.309 292.417C217.337 292.497 217.366 292.578 217.392 292.658C217.503 292.963 217.612 293.269 217.716 293.576C217.732 293.618 217.748 293.66 217.763 293.703C217.78 293.751 217.795 293.8 217.811 293.85C217.828 293.892 217.846 293.936 217.863 293.979C217.875 294.014 217.887 294.05 217.899 294.086C217.916 294.129 217.932 294.174 217.948 294.218L217.948 294.218C217.964 294.264 217.979 294.31 217.994 294.356C218.011 294.4 218.029 294.445 218.046 294.49C218.061 294.534 218.075 294.58 218.088 294.625C218.12 294.705 218.149 294.785 218.177 294.866C218.267 295.104 218.35 295.344 218.433 295.583C218.456 295.649 218.479 295.715 218.502 295.78C218.581 295.996 218.658 296.212 218.732 296.428C218.749 296.471 218.765 296.514 218.781 296.558C218.796 296.604 218.81 296.65 218.822 296.697C218.845 296.741 218.867 296.786 218.89 296.831C218.917 296.988 218.921 297.148 218.879 297.303C218.863 297.337 218.848 297.373 218.834 297.408C218.747 297.531 218.631 297.642 218.478 297.726C218.228 297.829 217.954 297.894 217.676 297.946C217.259 298.028 216.841 298.107 216.421 298.182L216.241 298.216C216.164 298.229 216.087 298.24 216.011 298.25C215.942 298.263 215.874 298.275 215.806 298.286C215.807 298.368 215.811 298.45 215.816 298.532C215.85 298.642 215.857 298.755 215.864 298.868C215.865 298.89 215.867 298.912 215.868 298.934C215.879 298.97 215.885 299.007 215.892 299.043C215.897 299.074 215.902 299.104 215.91 299.134C215.914 299.13 215.924 299.121 215.928 299.117C215.93 299.142 215.924 299.167 215.918 299.191C215.91 299.219 215.903 299.247 215.908 299.277C215.959 299.524 215.987 299.774 216.003 300.024C216.037 300.147 216.044 300.272 216.05 300.397C216.095 300.631 216.117 300.869 216.137 301.106C216.269 301.095 216.399 301.073 216.527 301.048C216.575 301.036 216.623 301.025 216.671 301.014C216.733 301.001 216.795 300.99 216.858 300.979C217.185 300.912 217.515 300.85 217.844 300.789L217.912 300.776C217.957 300.767 218.002 300.758 218.048 300.75C218.079 300.744 218.11 300.738 218.141 300.732C218.169 300.726 218.197 300.72 218.225 300.714C218.257 300.708 218.288 300.701 218.319 300.694C218.464 300.669 218.609 300.641 218.753 300.614C218.888 300.588 219.024 300.562 219.159 300.538C219.212 300.527 219.264 300.517 219.317 300.507L219.347 300.501C219.406 300.49 219.465 300.479 219.524 300.469C219.6 300.452 219.677 300.437 219.754 300.421C219.806 300.412 219.858 300.403 219.909 300.393C219.954 300.385 219.998 300.377 220.043 300.369C220.103 300.356 220.163 300.345 220.224 300.334C220.285 300.321 220.347 300.31 220.409 300.298C220.471 300.286 220.533 300.276 220.595 300.266C220.653 300.253 220.712 300.241 220.771 300.229C220.832 300.218 220.893 300.207 220.954 300.198C221.016 300.185 221.079 300.174 221.142 300.163C221.201 300.151 221.261 300.14 221.321 300.13C221.383 300.117 221.445 300.106 221.508 300.094C221.57 300.082 221.633 300.072 221.696 300.062C221.806 300.039 221.918 300.017 222.029 299.997C222.079 299.986 222.129 299.975 222.179 299.965C222.22 299.956 222.26 299.948 222.3 299.939C222.314 299.959 222.341 299.998 222.355 300.017C222.367 300.062 222.381 300.107 222.395 300.151C222.406 300.187 222.417 300.222 222.427 300.258C222.474 300.384 222.519 300.511 222.563 300.639C222.579 300.683 222.594 300.728 222.61 300.773C222.643 300.866 222.677 300.959 222.711 301.051C222.786 301.254 222.861 301.457 222.93 301.661C222.979 301.794 223.027 301.927 223.07 302.061C223.084 302.097 223.097 302.132 223.109 302.169L223.119 302.196C223.131 302.227 223.141 302.258 223.152 302.29C223.157 302.303 223.161 302.316 223.166 302.33C223.214 302.457 223.259 302.585 223.3 302.713C223.334 302.801 223.368 302.89 223.396 302.98C223.414 303.024 223.431 303.068 223.449 303.112C223.461 303.148 223.473 303.185 223.484 303.222C223.541 303.373 223.595 303.525 223.631 303.68C223.71 303.671 223.789 303.66 223.867 303.647C223.876 303.646 223.888 303.643 223.901 303.641C223.923 303.637 223.948 303.633 223.963 303.63C224.023 303.615 224.083 303.601 224.144 303.587C224.205 303.576 224.266 303.567 224.327 303.558C224.435 303.533 224.543 303.511 224.653 303.491C225.067 303.41 225.482 303.33 225.898 303.254C225.946 303.243 225.996 303.234 226.045 303.224C226.072 303.218 226.1 303.213 226.127 303.207C226.166 303.2 226.205 303.193 226.244 303.186C226.382 303.16 226.52 303.135 226.66 303.118L226.657 303.088L226.723 303.096C226.7 303.007 226.667 302.92 226.634 302.833C226.622 302.801 226.61 302.768 226.598 302.736C226.587 302.707 226.576 302.678 226.565 302.65C226.554 302.623 226.544 302.596 226.533 302.57C226.501 302.47 226.466 302.371 226.431 302.273C226.393 302.167 226.355 302.062 226.321 301.956C226.311 301.93 226.302 301.904 226.292 301.879C226.281 301.848 226.27 301.818 226.258 301.788C226.239 301.732 226.218 301.675 226.198 301.618C226.162 301.516 226.126 301.414 226.093 301.312C226.058 301.221 226.026 301.13 225.997 301.038C225.979 300.994 225.964 300.95 225.949 300.906C225.916 300.825 225.886 300.744 225.859 300.662C225.842 300.617 225.827 300.572 225.812 300.527C225.795 300.482 225.78 300.437 225.765 300.393C225.748 300.348 225.732 300.304 225.717 300.259C225.7 300.213 225.685 300.166 225.67 300.12C225.64 300.041 225.61 299.961 225.583 299.882C225.549 299.793 225.517 299.704 225.487 299.615C225.418 299.434 225.357 299.252 225.305 299.068C225.288 299.023 225.273 298.978 225.258 298.933C225.242 298.887 225.227 298.84 225.214 298.794C225.197 298.749 225.182 298.704 225.168 298.659C225.127 298.544 225.089 298.428 225.052 298.312C225.038 298.271 225.025 298.23 225.011 298.189C224.995 298.143 224.979 298.098 224.961 298.054C224.953 298.016 224.946 297.979 224.939 297.942C224.921 297.898 224.905 297.853 224.89 297.809C224.872 297.757 224.856 297.705 224.84 297.653L224.839 297.647C224.822 297.602 224.808 297.557 224.794 297.512C224.779 297.47 224.766 297.428 224.753 297.387L224.747 297.368C224.737 297.34 224.727 297.313 224.717 297.285C224.706 297.257 224.696 297.228 224.684 297.199C224.673 297.157 224.66 297.115 224.647 297.074C224.636 297.037 224.625 297 224.614 296.963C224.602 296.93 224.59 296.897 224.578 296.864C224.57 296.841 224.562 296.819 224.554 296.796C224.532 296.722 224.506 296.648 224.481 296.575C224.463 296.524 224.445 296.473 224.429 296.422C224.409 296.369 224.389 296.316 224.37 296.264C224.353 296.216 224.335 296.168 224.317 296.12C224.284 296.019 224.248 295.918 224.212 295.817C224.174 295.712 224.137 295.608 224.103 295.504C224.086 295.459 224.071 295.415 224.056 295.371C224.034 295.315 224.015 295.259 223.993 295.204C223.981 295.167 223.969 295.132 223.956 295.096C223.944 295.063 223.932 295.03 223.921 294.996C223.909 294.967 223.898 294.937 223.888 294.908C223.883 294.892 223.877 294.877 223.872 294.862C223.865 294.842 223.858 294.822 223.851 294.802C223.842 294.777 223.834 294.752 223.826 294.727C223.808 294.681 223.792 294.636 223.777 294.591C223.76 294.546 223.746 294.501 223.732 294.457C223.716 294.415 223.7 294.374 223.685 294.332C223.663 294.272 223.641 294.211 223.616 294.151C223.614 294.142 223.612 294.132 223.61 294.123C223.607 294.108 223.604 294.092 223.601 294.077C223.59 294.053 223.58 294.03 223.57 294.006C223.562 293.986 223.553 293.965 223.545 293.944C223.529 293.898 223.515 293.852 223.502 293.806C223.452 293.684 223.408 293.561 223.367 293.437C223.345 293.379 223.324 293.322 223.303 293.264C223.288 293.221 223.272 293.179 223.256 293.136C223.228 293.049 223.197 292.963 223.167 292.876C223.14 292.802 223.113 292.727 223.088 292.653C223.065 292.594 223.044 292.534 223.022 292.475C223.008 292.433 222.993 292.392 222.977 292.351C222.966 292.315 222.954 292.279 222.942 292.243C222.93 292.209 222.918 292.175 222.907 292.14C222.897 292.113 222.886 292.086 222.876 292.059C222.865 292.031 222.855 292.002 222.843 291.974C222.812 291.893 222.779 291.813 222.744 291.733C222.757 291.722 222.782 291.698 222.795 291.686L222.855 291.683C222.929 291.667 223.002 291.653 223.076 291.638C223.139 291.625 223.202 291.612 223.265 291.599C223.419 291.568 223.573 291.535 223.727 291.504C223.775 291.494 223.824 291.484 223.873 291.475C223.985 291.449 224.098 291.424 224.211 291.399C224.299 291.38 224.388 291.36 224.476 291.34L224.517 291.329C224.639 291.297 224.76 291.265 224.883 291.236C224.947 291.218 225.012 291.2 225.077 291.182C225.149 291.162 225.222 291.143 225.293 291.122C225.469 291.072 225.642 291.02 225.816 290.968L225.899 290.943L225.939 290.936C226.03 290.905 226.123 290.876 226.216 290.847C226.262 290.832 226.308 290.817 226.354 290.802C226.445 290.771 226.537 290.741 226.63 290.713C226.736 290.68 226.839 290.645 226.943 290.609C226.976 290.598 227.01 290.586 227.044 290.575C227.223 290.525 227.395 290.464 227.563 290.396L227.623 290.403L227.629 290.377C227.672 290.365 227.716 290.353 227.759 290.34C227.783 290.334 227.807 290.327 227.83 290.32C227.892 290.296 227.954 290.273 228.017 290.249C228.127 290.208 228.237 290.168 228.346 290.124C228.361 290.126 228.394 290.129 228.41 290.13L228.417 290.087L228.5 290.1L228.508 290.054L228.592 290.063L228.597 290.039C228.787 289.981 228.966 289.907 229.145 289.834C229.248 289.791 229.35 289.749 229.455 289.71C229.729 289.604 229.987 289.477 230.244 289.35C230.287 289.329 230.33 289.307 230.373 289.286C231.438 288.737 232.362 288.05 233.16 287.296C233.503 286.959 233.788 286.587 233.938 286.178C233.951 286.13 233.964 286.081 233.98 286.033C233.996 285.965 234.01 285.896 234.032 285.828C234.037 285.783 234.04 285.737 234.043 285.691C234.049 285.602 234.054 285.512 234.078 285.424C234.079 285.412 234.079 285.393 234.08 285.374C234.08 285.355 234.081 285.336 234.082 285.324C234.053 285.216 234.048 285.106 234.042 284.997C234.041 284.958 234.039 284.919 234.036 284.881C233.999 284.746 233.967 284.61 233.94 284.474C233.922 284.428 233.907 284.383 233.892 284.337C233.883 284.314 233.876 284.29 233.868 284.267C233.861 284.245 233.855 284.223 233.848 284.201C233.834 284.168 233.82 284.135 233.806 284.103C233.797 284.08 233.788 284.058 233.778 284.035L233.763 283.997C233.744 283.951 233.726 283.906 233.709 283.861C233.688 283.822 233.668 283.783 233.647 283.743C233.621 283.693 233.595 283.642 233.568 283.592C233.537 283.534 233.508 283.476 233.479 283.417C233.451 283.385 233.423 283.352 233.396 283.319C233.398 283.309 233.401 283.289 233.404 283.276L233.405 283.272L233.347 283.266C233.349 283.253 233.354 283.229 233.357 283.216L233.289 283.151C233.139 282.93 232.951 282.726 232.746 282.531C232.247 282.09 231.61 281.735 230.889 281.513C230.632 281.435 230.369 281.369 230.103 281.312C230.04 281.303 229.978 281.293 229.916 281.282C229.853 281.269 229.79 281.257 229.727 281.244C229.636 281.234 229.546 281.224 229.458 281.209C229.014 281.155 228.566 281.123 228.116 281.12C227.984 281.102 227.85 281.102 227.717 281.102L227.697 281.103L227.622 281.103C227.571 281.104 227.52 281.105 227.469 281.106C227.307 281.128 227.143 281.13 226.979 281.132C226.894 281.132 226.808 281.133 226.723 281.137C226.458 281.158 226.192 281.18 225.927 281.202C225.763 281.216 225.6 281.229 225.436 281.243C225.343 281.257 225.25 281.27 225.156 281.283C225.063 281.296 224.969 281.309 224.876 281.323L224.85 281.295C224.837 281.281 224.825 281.268 224.813 281.255C224.81 281.229 224.807 281.204 224.805 281.179C224.786 281.133 224.768 281.087 224.751 281.041C224.728 280.973 224.704 280.905 224.681 280.837C224.657 280.769 224.633 280.701 224.61 280.632C224.593 280.589 224.579 280.545 224.564 280.502C224.548 280.458 224.532 280.415 224.517 280.371C224.483 280.274 224.448 280.178 224.412 280.081C224.355 279.925 224.298 279.77 224.246 279.614C224.214 279.525 224.182 279.437 224.154 279.348C224.139 279.308 224.124 279.267 224.109 279.227C224.028 279.005 223.946 278.783 223.872 278.559C223.854 278.515 223.839 278.47 223.823 278.426C223.815 278.402 223.807 278.379 223.799 278.355C223.792 278.336 223.786 278.317 223.78 278.297C223.762 278.252 223.745 278.206 223.728 278.161L223.722 278.144C223.677 278.015 223.631 277.886 223.594 277.755C223.578 277.712 223.562 277.668 223.548 277.625C223.42 277.633 223.297 277.659 223.173 277.684ZM223.931 284.313L223.959 284.311C224.522 284.258 225.095 284.228 225.659 284.28C225.749 284.286 225.838 284.297 225.927 284.308C225.993 284.316 226.058 284.324 226.124 284.33C226.381 284.375 226.638 284.43 226.872 284.522C226.886 284.522 226.916 284.523 226.93 284.523L226.941 284.544C227.434 284.724 227.838 285.033 228.061 285.402L228.09 285.412C228.09 285.418 228.091 285.425 228.092 285.433C228.093 285.441 228.094 285.448 228.095 285.453C228.155 285.547 228.202 285.645 228.243 285.744L228.25 285.761C228.268 285.808 228.286 285.856 228.306 285.903C228.314 285.949 228.323 285.995 228.332 286.042C228.394 286.276 228.374 286.518 228.311 286.752C228.268 286.853 228.224 286.955 228.174 287.055C228.162 287.074 228.15 287.093 228.138 287.112C228.133 287.121 228.128 287.129 228.123 287.137L228.112 287.148C228.018 287.282 227.899 287.407 227.777 287.529C227.562 287.71 227.319 287.871 227.059 288.017C226.96 288.07 226.857 288.118 226.754 288.166C226.665 288.207 226.577 288.248 226.491 288.292C226.476 288.292 226.446 288.29 226.431 288.289L226.426 288.332C226.415 288.331 226.4 288.33 226.384 288.328C226.368 288.327 226.352 288.325 226.341 288.324L226.332 288.365L226.277 288.366C226.184 288.406 226.09 288.442 225.993 288.476C225.913 288.505 225.834 288.535 225.756 288.566L225.693 288.563L225.688 288.587C225.601 288.611 225.515 288.636 225.429 288.661C225.423 288.663 225.413 288.666 225.404 288.669L225.393 288.673C225.29 288.706 225.184 288.735 225.079 288.764C225.045 288.774 225.011 288.784 224.977 288.793C224.748 288.856 224.514 288.911 224.281 288.966C224.248 288.973 224.215 288.98 224.183 288.988C224.139 288.998 224.095 289.008 224.051 289.017C223.95 289.04 223.849 289.061 223.748 289.082L223.725 289.087C223.617 289.11 223.51 289.132 223.401 289.152C223.371 289.158 223.342 289.164 223.312 289.17C223.265 289.179 223.218 289.189 223.172 289.198L223.073 289.217C222.92 289.245 222.768 289.273 222.616 289.304C222.57 289.309 222.524 289.314 222.478 289.319C222.419 289.332 222.359 289.345 222.3 289.357C222.174 289.384 222.047 289.407 221.918 289.422C221.911 289.389 221.904 289.356 221.896 289.324L221.89 289.296C221.881 289.27 221.872 289.245 221.864 289.219C221.857 289.198 221.851 289.177 221.844 289.156C221.837 289.137 221.829 289.118 221.822 289.099C221.807 289.061 221.792 289.022 221.776 288.984L221.755 288.889C221.735 288.844 221.717 288.799 221.699 288.754C221.684 288.709 221.67 288.664 221.657 288.62C221.609 288.493 221.562 288.366 221.519 288.239C221.463 288.101 221.415 287.962 221.367 287.823C221.321 287.692 221.276 287.56 221.224 287.429C221.178 287.289 221.128 287.15 221.079 287.011C221.04 286.9 221 286.789 220.963 286.678C220.933 286.599 220.905 286.52 220.877 286.44C220.857 286.382 220.836 286.323 220.815 286.265C220.806 286.241 220.798 286.217 220.789 286.193C220.77 286.141 220.751 286.088 220.734 286.036C220.716 285.991 220.699 285.946 220.683 285.901C220.67 285.867 220.659 285.832 220.647 285.797L220.637 285.766C220.622 285.726 220.608 285.685 220.595 285.645L220.591 285.631C220.56 285.55 220.53 285.469 220.503 285.387C220.486 285.342 220.471 285.297 220.456 285.252C220.416 285.158 220.378 285.063 220.335 284.97L220.352 284.96C220.378 284.944 220.404 284.927 220.43 284.912C220.608 284.893 220.78 284.856 220.952 284.818C221.06 284.794 221.168 284.77 221.278 284.751C221.554 284.691 221.832 284.632 222.112 284.582C222.175 284.569 222.238 284.558 222.301 284.546C222.377 284.532 222.453 284.519 222.529 284.503C222.597 284.494 222.664 284.483 222.731 284.472C222.786 284.463 222.84 284.455 222.895 284.446C222.971 284.433 223.049 284.422 223.127 284.412C223.204 284.4 223.282 284.389 223.361 284.379C223.451 284.365 223.543 284.354 223.635 284.344C223.733 284.33 223.832 284.322 223.931 284.313Z" fill="white"/>
<path fill-rule="evenodd" clip-rule="evenodd" d="M234.032 288.014C234.122 288.015 234.212 288.02 234.302 288.026C234.439 288.065 234.578 288.099 234.718 288.133C235.269 288.286 235.789 288.499 236.247 288.773C236.585 288.99 236.902 289.227 237.166 289.496C237.434 289.773 237.658 290.073 237.844 290.385C237.881 290.451 237.917 290.517 237.957 290.582C237.995 290.663 238.035 290.745 238.073 290.826C238.112 290.915 238.148 291.004 238.185 291.093C238.199 291.139 238.215 291.185 238.231 291.231C238.246 291.275 238.261 291.321 238.278 291.366C238.292 291.41 238.306 291.453 238.324 291.497C238.378 291.711 238.423 291.927 238.469 292.142C238.475 292.257 238.486 292.371 238.514 292.483C238.527 292.766 238.525 293.049 238.51 293.332C238.471 293.49 238.442 293.649 238.417 293.809C238.385 293.9 238.355 293.992 238.326 294.084C238.291 294.162 238.258 294.241 238.227 294.321C238.212 294.355 238.199 294.388 238.185 294.423C238.155 294.48 238.126 294.538 238.098 294.597C238.056 294.663 238.013 294.73 237.968 294.796C237.969 294.807 237.971 294.83 237.971 294.842L237.916 294.85C237.919 294.864 237.926 294.894 237.929 294.909L237.872 294.915C237.873 294.927 237.874 294.949 237.874 294.961C237.44 295.537 236.843 296.041 236.139 296.447C236.077 296.481 236.016 296.516 235.954 296.55C235.542 296.781 235.101 296.985 234.644 297.165L234.638 297.19C234.623 297.189 234.592 297.187 234.577 297.186C234.413 297.263 234.241 297.329 234.067 297.393C234.052 297.392 234.021 297.39 234.005 297.389L233.996 297.43C233.98 297.429 233.948 297.427 233.932 297.426C233.905 297.438 233.85 297.46 233.822 297.472L233.812 297.485C233.784 297.492 233.728 297.508 233.7 297.516C233.677 297.528 233.632 297.551 233.609 297.563C233.597 297.562 233.572 297.561 233.56 297.56C233.466 297.594 233.372 297.627 233.279 297.661L233.246 297.666C233.013 297.74 232.778 297.809 232.543 297.877C232.239 297.967 231.93 298.044 231.624 298.129C231.437 298.174 231.248 298.216 231.064 298.266C231.011 298.271 230.958 298.278 230.907 298.284C230.907 298.319 230.908 298.355 230.91 298.391C230.977 298.522 231.024 298.658 231.074 298.794C231.155 299.046 231.253 299.296 231.337 299.548C231.352 299.592 231.368 299.637 231.384 299.681C231.405 299.737 231.425 299.793 231.447 299.849C231.472 299.93 231.502 300.01 231.531 300.091C231.547 300.135 231.564 300.179 231.582 300.223C231.596 300.268 231.61 300.312 231.627 300.356C231.642 300.402 231.658 300.448 231.676 300.494C231.703 300.575 231.732 300.656 231.762 300.736C231.778 300.782 231.795 300.827 231.812 300.873C231.826 300.917 231.841 300.963 231.858 301.007C231.873 301.052 231.888 301.098 231.905 301.144C231.92 301.187 231.936 301.23 231.953 301.273C231.992 301.389 232.036 301.503 232.074 301.619C232.105 301.699 232.135 301.78 232.167 301.861C232.186 301.918 232.201 301.977 232.216 302.036C232.126 302.058 232.036 302.078 231.946 302.098C231.82 302.116 231.696 302.138 231.573 302.163C231.511 302.175 231.45 302.186 231.389 302.2C231.326 302.21 231.266 302.221 231.205 302.234C231.142 302.245 231.08 302.257 231.019 302.27C230.96 302.28 230.903 302.291 230.845 302.303C230.625 302.342 230.408 302.386 230.189 302.427C230.111 302.443 230.033 302.457 229.956 302.474C229.896 302.484 229.836 302.495 229.777 302.507C229.572 302.544 229.371 302.591 229.166 302.627C229.045 302.29 228.928 301.952 228.802 301.617C228.785 301.573 228.768 301.529 228.752 301.485C228.736 301.438 228.721 301.392 228.704 301.346C228.648 301.188 228.59 301.03 228.535 300.871C228.464 300.691 228.408 300.509 228.336 300.33C228.32 300.285 228.305 300.241 228.289 300.197C228.275 300.161 228.26 300.125 228.245 300.09C228.23 300.044 228.216 299.998 228.199 299.953C228.183 299.909 228.167 299.867 228.151 299.825C228.091 299.652 228.03 299.48 227.964 299.308C227.95 299.263 227.936 299.219 227.92 299.175C227.881 299.061 227.838 298.948 227.797 298.835C227.762 298.743 227.729 298.65 227.693 298.559C227.677 298.515 227.661 298.471 227.645 298.429C227.589 298.268 227.528 298.11 227.477 297.949C227.454 297.893 227.433 297.838 227.411 297.783C227.397 297.737 227.383 297.692 227.368 297.647C227.325 297.534 227.281 297.42 227.244 297.305C227.208 297.215 227.174 297.126 227.139 297.036C227.122 296.989 227.107 296.942 227.09 296.896C227.074 296.852 227.058 296.809 227.042 296.766C226.985 296.577 226.894 296.395 226.839 296.207C226.964 296.163 227.099 296.139 227.232 296.111C227.279 296.1 227.326 296.091 227.374 296.08C227.452 296.063 227.53 296.045 227.608 296.027C227.699 296.003 227.792 295.981 227.886 295.958C227.991 295.931 228.097 295.904 228.203 295.876C228.315 295.845 228.428 295.814 228.542 295.786C228.613 295.763 228.685 295.74 228.757 295.717C228.841 295.693 228.927 295.67 229.012 295.649L229.018 295.621C229.038 295.624 229.08 295.63 229.101 295.633L229.109 295.59C229.124 295.591 229.154 295.592 229.169 295.593C229.283 295.551 229.399 295.512 229.519 295.479L229.527 295.469C229.555 295.458 229.609 295.436 229.636 295.425C229.647 295.424 229.67 295.422 229.682 295.421C230.133 295.245 230.572 295.05 230.975 294.819C231.555 294.483 232.041 294.035 232.225 293.501C232.264 293.312 232.302 293.121 232.279 292.929C232.257 292.85 232.243 292.769 232.233 292.688C232.2 292.597 232.168 292.506 232.139 292.415C232.075 292.288 232.009 292.162 231.925 292.042C231.924 292.034 231.922 292.019 231.92 292.011C231.644 291.672 231.261 291.373 230.772 291.198L230.761 291.174C230.741 291.176 230.7 291.181 230.679 291.184L230.675 291.155C230.527 291.111 230.379 291.069 230.229 291.031C230.17 291.019 230.111 291.008 230.052 290.997C229.989 290.982 229.926 290.97 229.864 290.956C229.759 290.944 229.652 290.936 229.549 290.92C229.46 290.912 229.372 290.906 229.284 290.9C229.289 290.876 229.293 290.853 229.299 290.83C230.001 290.536 230.687 290.221 231.341 289.871C231.592 289.737 231.836 289.595 232.079 289.454C232.585 289.152 233.035 288.805 233.49 288.464C233.683 288.323 233.858 288.168 234.032 288.014Z" fill="white"/>
<path opacity="0.2" d="M37.391 360C58.0253 360 74.7527 347.688 74.7527 332.5C74.7527 317.312 58.0253 305 37.391 305C16.7567 305 0.0292969 317.312 0.0292969 332.5C0.0292969 347.688 16.7567 360 37.391 360Z" fill="#F3BA2F"/>
<path fill-rule="evenodd" clip-rule="evenodd" d="M29.5804 330.136L37.3951 324.387L45.2131 330.141L49.7576 326.794L37.3951 317.692L25.0326 326.791L29.5804 330.136ZM17.2734 332.501L21.8195 329.154L26.3656 332.501L21.8195 335.847L17.2734 332.501ZM37.395 340.616L29.5803 334.864L25.0262 338.206L25.0325 338.211L37.395 347.308L49.7576 338.206L49.7607 338.204L45.213 334.861L37.395 340.616ZM48.4171 332.501L52.9632 329.155L57.5093 332.501L52.9632 335.847L48.4171 332.501ZM37.3951 329.102L42.0065 332.499H42.0096L42.0065 332.501L37.3951 335.898L32.7838 332.506L32.7775 332.499L32.7838 332.494L33.5911 331.9L33.9851 331.612L37.3951 329.102Z" fill="#F3BA2F"/>
<path opacity="0.2" d="M158.329 135C176.338 135 190.938 122.688 190.938 107.5C190.938 92.3122 176.338 80 158.329 80C140.32 80 125.721 92.3122 125.721 107.5C125.721 122.688 140.32 135 158.329 135Z" fill="#3A74BE"/>
<path d="M151.302 99.7174C152.851 99.7174 154.456 99.7174 156.005 99.7174V96.9231H160.985V99.7174H165.854V103.985L157.057 113.283H165.854V117.601H161.04V120.192H155.95V117.601H150.804V113.384L159.602 104.036L151.302 104.239V99.7174Z" fill="white"/>
<path opacity="0.1" d="M93.1119 256C111.121 256 125.72 243.688 125.72 228.5C125.72 213.312 111.121 201 93.1119 201C75.1027 201 60.5034 213.312 60.5034 228.5C60.5034 243.688 75.1027 256 93.1119 256Z" fill="#3AB83A"/>
<mask id="mask0_240_17495" style="mask-type:luminance" maskUnits="userSpaceOnUse" x="60" y="201" width="66" height="55">
<path d="M93.1119 256C111.121 256 125.72 243.688 125.72 228.5C125.72 213.312 111.121 201 93.1119 201C75.1027 201 60.5034 213.312 60.5034 228.5C60.5034 243.688 75.1027 256 93.1119 256Z" fill="white"/>
</mask>
<g mask="url(#mask0_240_17495)">
<path fill-rule="evenodd" clip-rule="evenodd" d="M85.5869 227.074L94.4022 222.242L103.145 227.104L94.3637 213.692L85.5869 227.074ZM85.9232 228.47L94.4118 223.753L102.79 228.435L94.4166 233.157L85.9232 228.47ZM85.5869 229.821C88.6807 231.532 91.9089 233.323 94.4022 234.708L103.145 229.821C99.9795 234.718 97.3422 238.795 94.4022 243.308L92.5989 240.551L92.5982 240.55C90.1765 236.848 87.6792 233.031 85.5869 229.821Z" fill="#3AB83A"/>
<path fill-rule="evenodd" clip-rule="evenodd" d="M94.3662 213.692L94.3991 222.242L103.145 227.104L94.3662 213.692ZM94.4074 223.753L102.841 228.435L94.4115 233.157L94.4074 223.753ZM94.3991 234.708L103.145 229.821C100.433 234.718 94.3991 243.308 94.3991 243.308V234.708Z" fill="#0B8311"/>
</g>
<path opacity="0.2" d="M118.013 55C136.022 55 150.621 42.6878 150.621 27.5C150.621 12.3122 136.022 0 118.013 0C100.004 0 85.4043 12.3122 85.4043 27.5C85.4043 42.6878 100.004 55 118.013 55Z" fill="#F7931A"/>
<path fill-rule="evenodd" clip-rule="evenodd" d="M131.065 22.618C130.128 21.9958 128.966 21.7035 127.579 21.7414C128.891 20.5221 129.078 18.9835 128.14 17.1253C127.806 16.45 127.375 15.9017 126.845 15.4796C126.315 15.0574 125.708 14.7652 125.022 14.6033C124.336 14.4408 123.629 14.3652 122.902 14.3754C122.175 14.3856 121.368 14.466 120.48 14.6164L118.94 10.6517L116.426 11.3061L117.924 15.1607C117.489 15.274 116.829 15.4573 115.945 15.7105L114.435 11.8245L111.922 12.479L113.462 16.4437C113.107 16.5477 112.581 16.6905 111.885 16.8718L108.419 17.7568L109.421 20.3371L111.233 19.8654C112.06 19.6501 112.683 19.8807 113.101 20.557L114.855 25.0724C114.964 25.0441 115.053 25.0268 115.122 25.0203L114.861 25.0883L117.318 31.4127C117.439 31.9701 117.227 32.3199 116.683 32.4616L114.872 32.9333L115.484 35.9442L118.748 35.0943C118.955 35.0404 119.255 34.9652 119.649 34.8679C120.043 34.7712 120.337 34.6974 120.533 34.6464L122.092 38.6583L124.606 38.0037L123.065 34.039C123.526 33.9308 124.192 33.7631 125.063 33.5365L126.597 37.4853L129.11 36.8309L127.551 32.819C128.427 32.5448 129.189 32.2605 129.834 31.9649C130.48 31.6692 131.071 31.3164 131.606 30.9054C132.141 30.4949 132.55 30.0505 132.831 29.5729C133.113 29.0956 133.283 28.5373 133.341 27.8985C133.398 27.2599 133.32 26.5582 133.106 25.7936C132.682 24.2991 132.001 23.2405 131.065 22.618ZM117.395 18.4807L117.395 18.4806L119.325 23.2732C119.382 23.2592 119.577 23.2138 119.911 23.1363C120.245 23.0589 120.507 22.9939 120.696 22.9412C120.886 22.8885 121.163 22.8079 121.528 22.7C121.893 22.5922 122.191 22.4866 122.422 22.3833C122.653 22.2803 122.92 22.151 123.222 21.9956C123.525 21.8403 123.759 21.6761 123.925 21.5034C124.091 21.3307 124.243 21.1382 124.38 20.9265C124.518 20.7149 124.589 20.4766 124.594 20.2122C124.599 19.9476 124.542 19.6695 124.425 19.3781C124.287 19.0347 124.094 18.7478 123.846 18.5174C123.598 18.2869 123.339 18.1109 123.067 17.9896C122.795 17.8682 122.467 17.7896 122.08 17.754C121.695 17.7181 121.35 17.7092 121.048 17.7272C120.746 17.7452 120.383 17.7895 119.96 17.8603C119.536 17.9313 119.204 17.9994 118.964 18.0647C118.724 18.1301 118.423 18.2107 118.059 18.307C117.695 18.4031 117.474 18.461 117.395 18.4806L117.395 18.4806L117.395 18.4806L117.395 18.4807ZM127.944 28.291C128.042 28.0724 128.096 27.8302 128.108 27.5645C128.118 27.2987 128.065 27.0208 127.947 26.7294C127.796 26.3551 127.577 26.0432 127.289 25.7942C127.001 25.5448 126.696 25.3576 126.371 25.2315C126.046 25.1058 125.656 25.0275 125.202 24.9965C124.747 24.9655 124.338 24.9607 123.974 24.9818C123.608 25.0032 123.171 25.0597 122.661 25.1514C122.15 25.2427 121.753 25.3235 121.47 25.3932C121.187 25.4629 120.824 25.5576 120.381 25.6783C119.938 25.799 119.671 25.8703 119.581 25.8926L121.712 31.1632C121.803 31.1409 122.013 31.092 122.344 31.016C122.674 30.9402 122.947 30.8761 123.162 30.8231C123.377 30.7702 123.674 30.6883 124.052 30.5783C124.431 30.4677 124.753 30.3655 125.02 30.2712C125.287 30.1767 125.592 30.0534 125.935 29.9002C126.277 29.7471 126.562 29.5974 126.788 29.4497C127.015 29.3025 127.24 29.1272 127.462 28.9236C127.685 28.7204 127.845 28.5092 127.944 28.291Z" fill="#F7931A"/>
<path fill-rule="evenodd" clip-rule="evenodd" d="M118.013 50.7692C133.251 50.7692 145.605 40.3512 145.605 27.5C145.605 14.6488 133.251 4.23077 118.013 4.23077C102.774 4.23077 90.4209 14.6488 90.4209 27.5C90.4209 40.3512 102.774 50.7692 118.013 50.7692Z" stroke="#F7931A" stroke-width="1.38125"/>
<path opacity="0.2" d="M189.959 366.153C185.604 380.885 167.91 389.85 150.439 386.177C132.976 382.504 122.345 367.582 126.701 352.851C131.054 338.117 148.747 329.15 166.213 332.823C183.683 336.496 194.314 351.42 189.958 366.153H189.959Z" fill="#F7931A"/>
<path fill-rule="evenodd" clip-rule="evenodd" d="M168.15 356.305C168.59 353.823 166.348 352.488 163.284 351.598L164.278 348.235L161.85 347.725L160.882 350.999C160.245 350.865 159.59 350.739 158.939 350.613L159.913 347.318L157.488 346.808L156.493 350.169C155.965 350.068 155.446 349.967 154.943 349.862L154.946 349.851L151.598 349.147L150.953 351.333C150.953 351.333 152.754 351.681 152.716 351.702C153.699 351.909 153.877 352.458 153.847 352.893L152.714 356.724C152.782 356.738 152.87 356.759 152.967 356.792L152.711 356.738L151.123 362.105C151.003 362.357 150.698 362.734 150.011 362.591C150.035 362.621 148.246 362.22 148.246 362.22L147.042 364.563L150.201 365.227C150.557 365.303 150.91 365.38 151.258 365.457C151.484 365.506 151.708 365.556 151.93 365.604L150.926 369.006L153.35 369.516L154.346 366.151C155.007 366.302 155.65 366.442 156.279 366.574L155.288 369.923L157.715 370.433L158.719 367.039C162.858 367.699 165.971 367.433 167.28 364.276C168.335 361.734 167.228 360.268 165.05 359.312C166.636 359.002 167.831 358.122 168.149 356.305H168.15ZM162.604 362.863C161.915 365.196 157.584 364.231 155.604 363.79L155.604 363.79C155.427 363.75 155.268 363.715 155.133 363.686L156.466 359.18C156.631 359.215 156.833 359.253 157.062 359.297C159.11 359.684 163.308 360.479 162.604 362.863H162.604ZM157.474 357.206C159.126 357.578 162.726 358.388 163.354 356.268C163.995 354.1 160.494 353.447 158.784 353.128C158.591 353.092 158.422 353.06 158.283 353.031L157.075 357.118C157.189 357.142 157.323 357.172 157.474 357.206Z" fill="#F7931A"/>
<path opacity="0.2" d="M244.12 214.501C244.12 229.608 229.598 241.856 211.684 241.856C193.769 241.856 179.247 229.608 179.247 214.501C179.247 199.393 193.769 187.146 211.684 187.146C229.598 187.146 244.12 199.393 244.12 214.501Z" fill="#505050"/>
<g opacity="0.8">
<path d="M211.58 201.808L211.38 202.382V219.047L211.58 219.215L220.753 214.643L211.58 201.808Z" fill="white"/>
<path d="M211.58 201.808L202.408 214.643L211.58 219.215V211.127V201.808Z" fill="white"/>
<path d="M211.58 221.732L211.467 221.848V227.784L211.58 228.062L220.758 217.162L211.58 221.732Z" fill="white"/>
<path d="M211.58 228.063V221.732L202.408 217.162L211.58 228.063Z" fill="white"/>
<path d="M211.58 219.215L220.752 214.643L211.58 211.127V219.215Z" fill="white"/>
<path d="M202.408 214.643L211.58 219.215V211.127L202.408 214.643Z" fill="white"/>
</g>
</svg>
